<?xml version="1.0" encoding="utf-8"?>
<!-- Generator: Adobe Illustrator 15.0.0, SVG Export Plug-In . SVG Version: 6.00 Build 0)  -->
<!DOCTYPE svg PUBLIC "-//W3C//DTD SVG 1.1//EN" "http://www.w3.org/Graphics/SVG/1.1/DTD/svg11.dtd" [
	<!ENTITY ns_extend "http://ns.adobe.com/Extensibility/1.0/">
	<!ENTITY ns_ai "http://ns.adobe.com/AdobeIllustrator/10.0/">
	<!ENTITY ns_graphs "http://ns.adobe.com/Graphs/1.0/">
	<!ENTITY ns_vars "http://ns.adobe.com/Variables/1.0/">
	<!ENTITY ns_imrep "http://ns.adobe.com/ImageReplacement/1.0/">
	<!ENTITY ns_sfw "http://ns.adobe.com/SaveForWeb/1.0/">
	<!ENTITY ns_custom "http://ns.adobe.com/GenericCustomNamespace/1.0/">
	<!ENTITY ns_adobe_xpath "http://ns.adobe.com/XPath/1.0/">
]>
<svg version="1.1" id="Layer_1" xmlns:x="&ns_extend;" xmlns:i="&ns_ai;" xmlns:graph="&ns_graphs;"
	 xmlns="http://www.w3.org/2000/svg" xmlns:xlink="http://www.w3.org/1999/xlink" x="0px" y="0px" width="100px" height="100px"
	 viewBox="50 50 100 100" enable-background="new 50 50 100 100" xml:space="preserve">
<metadata>
	<sfw  xmlns="&ns_sfw;">
		<slices></slices>
		<sliceSourceBounds  bottomLeftOrigin="true" width="90.003" height="59.617" y="70.691" x="54.499"></sliceSourceBounds>
	</sfw>
</metadata>
<g>
	<path fill="#00AEEF" d="M65.141,105.849c0,2.825,2.296,5.12,5.129,5.12c2.83,0,5.125-2.295,5.125-5.12
		c0-2.832-2.296-5.13-5.125-5.13l0,0C67.438,100.724,65.144,103.017,65.141,105.849z M70.27,103.38c1.362,0,2.464,1.101,2.464,2.468
		c0,1.36-1.102,2.468-2.464,2.468c-1.364,0-2.469-1.109-2.469-2.468l0,0C67.803,104.482,68.907,103.382,70.27,103.38L70.27,103.38z"
		/>
	<path fill="#00AEEF" d="M124.608,105.849c0,2.825,2.295,5.12,5.126,5.12s5.125-2.295,5.125-5.12c0-2.832-2.294-5.13-5.125-5.13l0,0
		C126.903,100.724,124.61,103.017,124.608,105.849z M129.734,103.38c1.362,0,2.47,1.101,2.47,2.468c0,1.36-1.107,2.468-2.47,2.468
		c-1.365,0-2.468-1.109-2.468-2.468l0,0C127.27,104.482,128.371,103.382,129.734,103.38L129.734,103.38z"/>
	<path fill="#00AEEF" d="M74.556,118.891c-0.732,0-1.33,0.593-1.33,1.329v6.38c-0.023,0.292-0.266,0.528-0.565,0.548h-5.56
		c-0.292-0.02-0.518-0.265-0.522-0.548v-6.38c0-0.736-0.593-1.329-1.326-1.329c-0.738,0-1.33,0.593-1.33,1.329v6.38
		c0.005,1.757,1.42,3.178,3.178,3.208h5.562c1.767-0.022,3.194-1.448,3.224-3.208v-6.38
		C75.887,119.483,75.29,118.891,74.556,118.891z"/>
	<path fill="#00AEEF" d="M136.08,126.601v-6.381c0-0.736-0.598-1.329-1.328-1.329c-0.736,0-1.329,0.593-1.329,1.329v6.381
		c-0.004,0.283-0.231,0.527-0.52,0.548h-5.565c-0.3-0.021-0.539-0.255-0.564-0.548v-6.381c0-0.736-0.597-1.329-1.328-1.329
		c-0.733,0-1.327,0.593-1.327,1.329v6.381c0.024,1.759,1.453,3.185,3.222,3.208h5.563
		C134.66,129.779,136.074,128.358,136.08,126.601z"/>
	<path fill="#00AEEF" d="M82.311,103.4l-1.16,3.531c-0.133,0.42-0.064,0.865,0.189,1.221c0.245,0.352,0.645,0.569,1.073,0.582
		h35.174c0.762-0.035,1.355-0.68,1.327-1.444c-0.007-0.122-0.029-0.254-0.067-0.377l-1.216-3.522
		c-0.83-2.455-3.514-4.341-6.099-4.341H88.376C85.782,99.05,83.115,100.936,82.311,103.4z M115.115,104.274l0.615,1.8H84.245
		l0.592-1.802c0.447-1.374,2.098-2.563,3.539-2.563h23.155C112.974,101.709,114.65,102.902,115.115,104.274z"/>
	<path fill="#00AEEF" d="M122.228,110.629H78.847c-0.732,0-1.326,0.593-1.326,1.329c0,0.738,0.593,1.331,1.326,1.331h43.381
		c0.735,0,1.33-0.593,1.33-1.331C123.558,111.222,122.963,110.629,122.228,110.629z"/>
	<path fill="#00AEEF" d="M82.342,85.568c3.457,0.004,6.26,2.806,6.264,6.264c0,0.732,0.597,1.331,1.331,1.331
		c0.732,0,1.331-0.597,1.331-1.331c0-4.928-3.996-8.924-8.924-8.924c-4.929,0-8.924,3.996-8.924,8.924l0,0
		c0,0.732,0.593,1.331,1.331,1.331c0.732,0,1.324-0.597,1.324-1.331C76.079,88.374,78.883,85.572,82.342,85.568z"/>
	<path fill="#00AEEF" d="M65.141,105.849c0,2.825,2.296,5.12,5.129,5.12c2.83,0,5.125-2.295,5.125-5.12
		c0-2.832-2.296-5.13-5.125-5.13l0,0C67.438,100.724,65.144,103.017,65.141,105.849z M70.27,103.38c1.362,0,2.464,1.101,2.464,2.468
		c0,1.36-1.102,2.468-2.464,2.468c-1.364,0-2.469-1.109-2.469-2.468l0,0C67.803,104.482,68.907,103.382,70.27,103.38L70.27,103.38z"
		/>
	<path fill="#00AEEF" d="M124.608,105.849c0,2.825,2.295,5.12,5.126,5.12s5.125-2.295,5.125-5.12c0-2.832-2.294-5.13-5.125-5.13l0,0
		C126.903,100.724,124.61,103.017,124.608,105.849z M129.734,103.38c1.362,0,2.47,1.101,2.47,2.468c0,1.36-1.107,2.468-2.47,2.468
		c-1.365,0-2.468-1.109-2.468-2.468l0,0C127.27,104.482,128.371,103.382,129.734,103.38L129.734,103.38z"/>
	<path fill="#00AEEF" d="M74.556,118.891c-0.732,0-1.33,0.593-1.33,1.329v6.38c-0.023,0.292-0.266,0.528-0.565,0.548h-5.56
		c-0.292-0.02-0.518-0.265-0.522-0.548v-6.38c0-0.736-0.593-1.329-1.326-1.329c-0.738,0-1.33,0.593-1.33,1.329v6.38
		c0.005,1.757,1.42,3.178,3.178,3.208h5.562c1.767-0.022,3.194-1.448,3.224-3.208v-6.38
		C75.887,119.483,75.29,118.891,74.556,118.891z"/>
	<path fill="#00AEEF" d="M136.08,126.601v-6.381c0-0.736-0.598-1.329-1.328-1.329c-0.736,0-1.329,0.593-1.329,1.329v6.381
		c-0.004,0.283-0.231,0.527-0.52,0.548h-5.565c-0.3-0.021-0.539-0.255-0.564-0.548v-6.381c0-0.736-0.597-1.329-1.328-1.329
		c-0.733,0-1.327,0.593-1.327,1.329v6.381c0.024,1.759,1.453,3.185,3.222,3.208h5.563
		C134.66,129.779,136.074,128.358,136.08,126.601z"/>
	<path fill="#00AEEF" d="M82.311,103.4l-1.16,3.531c-0.133,0.42-0.064,0.865,0.189,1.221c0.245,0.352,0.645,0.569,1.073,0.582
		h35.174c0.762-0.035,1.355-0.68,1.327-1.444c-0.007-0.122-0.029-0.254-0.067-0.377l-1.216-3.522
		c-0.83-2.455-3.514-4.341-6.099-4.341H88.376C85.782,99.05,83.115,100.936,82.311,103.4z M115.115,104.274l0.615,1.8H84.245
		l0.592-1.802c0.447-1.374,2.098-2.563,3.539-2.563h23.155C112.974,101.709,114.65,102.902,115.115,104.274z"/>
	<path fill="#00AEEF" d="M122.228,110.629H78.847c-0.732,0-1.326,0.593-1.326,1.329c0,0.738,0.593,1.331,1.326,1.331h43.381
		c0.735,0,1.33-0.593,1.33-1.331C123.558,111.222,122.963,110.629,122.228,110.629z"/>
	<path fill="#00AEEF" d="M82.342,85.568c3.457,0.004,6.26,2.806,6.264,6.264c0,0.732,0.597,1.331,1.331,1.331
		c0.732,0,1.331-0.597,1.331-1.331c0-4.928-3.996-8.924-8.924-8.924c-4.929,0-8.924,3.996-8.924,8.924l0,0
		c0,0.732,0.593,1.331,1.331,1.331c0.732,0,1.324-0.597,1.324-1.331C76.079,88.374,78.883,85.572,82.342,85.568z"/>
	<path fill="#00AEEF" d="M56.329,92.213h0.002l4.608,0.008c-2.008,1.529-3.302,4.091-3.302,7.045c0,0.056,0.003,0.109,0.012,0.17
		l2.14,16.919c0.052,2.722,2.268,4.9,4.991,4.91h70.345c2.722-0.008,4.938-2.185,4.996-4.904l2.232-16.915
		c0.007-0.058,0.012-0.113,0.012-0.177c0-2.91-1.357-5.489-3.417-7.023l4.725-0.003c0.737,0,1.33-0.597,1.33-1.329
		c0-0.02,0-0.042-0.002-0.062c-0.079-1.12-0.301-2.224-0.654-3.29c-0.775-2.332-3.228-3.837-6.244-3.837
		c-1.812,0-5.098-0.012-6.598-0.019l-2.965-5.491c-2.076-3.723-5.109-8.022-10.147-8.022H81.916c-4.105,0-7.752,2.865-10.268,8.033
		l-3.092,5.496c-1.497-0.003-4.826-0.003-6.66-0.003c-3.014,0-5.468,1.509-6.244,3.841c-0.353,1.065-0.571,2.171-0.651,3.291
		c-0.02,0.357,0.114,0.708,0.368,0.967C55.619,92.075,55.967,92.217,56.329,92.213z M137.474,116.084
		c-0.008,0.058-0.011,0.122-0.011,0.179c-0.002,1.287-1.046,2.34-2.339,2.34H64.779c-1.287,0-2.332-1.051-2.332-2.34
		c0-0.053-0.002-0.116-0.01-0.168l-2.143-16.908c0.038-2.787,1.838-5.672,4.843-5.827c0.08,0.003,0.155,0,0.229-0.006h69.125
		c0.009,0,0.022,0.03,0.034,0.03c2.832,0,5.142,2.598,5.18,5.786L137.474,116.084z M138.103,86.377c1.826,0,3.321,0.815,3.723,2.022
		c0.132,0.388,0.233,0.781,0.32,1.183l-7.449,0.003l-1.747-3.218C134.587,86.371,136.756,86.377,138.103,86.377z M73.985,79.486
		c0.015-0.021,0.024-0.06,0.038-0.083c1.186-2.442,3.79-6.559,7.894-6.559h36.477c2.891,0,5.229,1.981,7.82,6.621l6.093,11.229
		H67.641L73.985,79.486z M58.177,88.399c0.403-1.207,1.897-2.022,3.72-2.022c1.353,0,3.517,0.004,5.162,0.008l-1.798,3.188
		l-7.4,0.006C57.941,89.18,58.049,88.786,58.177,88.399L58.177,88.399z"/>
</g>
</svg>
