<?xml version="1.0" encoding="utf-8"?>
<!-- Generator: Adobe Illustrator 15.0.0, SVG Export Plug-In . SVG Version: 6.00 Build 0)  -->
<!DOCTYPE svg PUBLIC "-//W3C//DTD SVG 1.1//EN" "http://www.w3.org/Graphics/SVG/1.1/DTD/svg11.dtd" [
	<!ENTITY ns_extend "http://ns.adobe.com/Extensibility/1.0/">
	<!ENTITY ns_ai "http://ns.adobe.com/AdobeIllustrator/10.0/">
	<!ENTITY ns_graphs "http://ns.adobe.com/Graphs/1.0/">
	<!ENTITY ns_vars "http://ns.adobe.com/Variables/1.0/">
	<!ENTITY ns_imrep "http://ns.adobe.com/ImageReplacement/1.0/">
	<!ENTITY ns_sfw "http://ns.adobe.com/SaveForWeb/1.0/">
	<!ENTITY ns_custom "http://ns.adobe.com/GenericCustomNamespace/1.0/">
	<!ENTITY ns_adobe_xpath "http://ns.adobe.com/XPath/1.0/">
]>
<svg version="1.1" id="Layer_1" xmlns:x="&ns_extend;" xmlns:i="&ns_ai;" xmlns:graph="&ns_graphs;"
	 xmlns="http://www.w3.org/2000/svg" xmlns:xlink="http://www.w3.org/1999/xlink" x="0px" y="0px" width="100px" height="100px"
	 viewBox="50 50 100 100" enable-background="new 50 50 100 100" xml:space="preserve">
<metadata>
	<sfw  xmlns="&ns_sfw;">
		<slices></slices>
		<sliceSourceBounds  bottomLeftOrigin="true" width="86.928" height="95" y="53" x="56.036"></sliceSourceBounds>
	</sfw>
</metadata>
<g>
	<path fill="#00AEEF" d="M128.462,81.728c-0.684-1.45-2.377-2.121-3.872-1.538l-6.24,2.45c-1.563,0.613-2.335,2.375-1.72,3.938
		c0.023,0.064,0.052,0.129,0.082,0.19l0.865,1.828l-0.692,0.294c-2.485,0.518-4.211,0.45-6.767-0.269l-6.234-1.745
		c-1.762-0.494-3.628-0.466-5.375,0.086l-6.015,1.897c-1.22,0.385-2.348,1.013-3.314,1.849c-1.056-0.385-3.072-0.886-5.834-0.485
		l0.817-1.556c0.747-1.421,0.26-3.178-1.114-4.012l-5.728-3.475c-1.44-0.874-3.318-0.415-4.19,1.025
		c-0.032,0.052-0.062,0.106-0.093,0.163l-16.15,30.823c-0.77,1.454-0.235,3.261,1.206,4.058l5.764,3.238
		c0.455,0.255,0.967,0.393,1.489,0.393c0.296,0,0.587-0.045,0.871-0.128c0.79-0.228,1.452-0.769,1.834-1.502l0.89-1.685l2.854,2.373
		l-4.112,5.69c-1.55,2.144-1.068,5.132,1.075,6.686c0.004,0.004,0.009,0.008,0.015,0.012l0.498,0.357
		c0.818,0.585,1.799,0.902,2.804,0.9c0.396,0,0.79-0.047,1.174-0.143c0.01,0.13,0.023,0.265,0.047,0.395
		c0.2,1.262,0.898,2.388,1.936,3.128l0.5,0.359c0.817,0.584,1.795,0.901,2.802,0.899c0.395,0,0.791-0.047,1.173-0.143
		c0.009,0.131,0.024,0.265,0.046,0.396c0.201,1.262,0.898,2.388,1.938,3.128l0.499,0.358c0.815,0.584,1.796,0.901,2.804,0.9
		c0.394,0,0.79-0.048,1.171-0.144c0.011,0.131,0.026,0.265,0.046,0.395c0.202,1.262,0.9,2.389,1.938,3.128l0.5,0.358
		c2.153,1.542,5.152,1.055,6.708-1.091l1.614-2.229l2.546,2.027c2.306,1.973,5.781,1.704,7.757-0.602
		c0.825-0.963,1.291-2.178,1.318-3.448c2.195,0.92,4.729,0.331,6.291-1.465c0.839-0.966,1.309-2.189,1.335-3.47
		c2.195,0.926,4.729,0.332,6.285-1.465c0.806-0.92,1.274-2.081,1.332-3.302c2.273,1.187,5.061,0.658,6.734-1.278l0.073-0.083
		c1.935-2.232,1.691-5.612-0.536-7.548c-0.005-0.006-0.013-0.012-0.019-0.018l-1.8-1.546c1.261-0.769,2.372-1.756,3.276-2.922
		l0.026,0.062c0.499,1.062,1.572,1.745,2.747,1.745c0.417,0,0.835-0.087,1.219-0.253l6.069-2.623
		c1.545-0.664,2.254-2.452,1.589-3.992c-0.014-0.031-0.027-0.063-0.036-0.09L128.462,81.728z M66.041,118.195
		c-0.203,0.379-0.672,0.522-1.053,0.319c-0.006-0.003-0.012-0.007-0.018-0.007l-5.764-3.24c-0.364-0.197-0.499-0.656-0.305-1.025
		l16.15-30.82c0.099-0.19,0.272-0.33,0.48-0.385c0.067-0.021,0.14-0.03,0.21-0.03c0.142,0,0.281,0.038,0.402,0.114l5.729,3.475
		c0.346,0.208,0.472,0.654,0.282,1.012L66.041,118.195z M70.599,130.841l-0.498-0.363c-1.131-0.808-1.392-2.379-0.583-3.51
		c0.002-0.005,0.005-0.009,0.008-0.012l6.365-8.806c0.822-1.127,2.405-1.388,3.541-0.57l0.501,0.36
		c1.129,0.808,1.391,2.381,0.581,3.511c-0.003,0.004-0.005,0.008-0.008,0.011l-1.648,2.279l-0.002,0.004l-4.713,6.521
		C73.319,131.4,71.736,131.655,70.599,130.841L70.599,130.841z M77.058,135.479l-0.502-0.363c-1.129-0.809-1.391-2.38-0.581-3.511
		c0.003-0.004,0.005-0.008,0.008-0.012l4.713-6.519c0.823-1.132,2.404-1.386,3.542-0.572l0.498,0.359
		c1.131,0.808,1.391,2.379,0.582,3.511c-0.001,0.004-0.003,0.007-0.006,0.011l-4.713,6.521
		C79.778,136.039,78.194,136.293,77.058,135.479L77.058,135.479z M83.514,140.117l-0.499-0.363
		c-1.129-0.809-1.391-2.381-0.582-3.513c0.002-0.002,0.005-0.006,0.008-0.01l3.361-4.647c0.822-1.134,2.405-1.389,3.543-0.574
		l0.499,0.357c1.131,0.809,1.391,2.381,0.581,3.512c-0.002,0.003-0.005,0.008-0.005,0.012l-3.363,4.651
		C86.235,140.676,84.654,140.931,83.514,140.117L83.514,140.117z M93.516,144.18c-0.822,1.135-2.405,1.39-3.544,0.574l-0.499-0.361
		c-1.131-0.81-1.391-2.382-0.582-3.512c0.001-0.005,0.003-0.009,0.006-0.013l2.012-2.781c0.822-1.128,2.405-1.389,3.543-0.569
		l0.499,0.359c1.129,0.808,1.392,2.379,0.581,3.51c-0.002,0.004-0.005,0.008-0.008,0.012L93.516,144.18z M129.67,126.462
		c0.064,0.816-0.207,1.623-0.746,2.243l-0.069,0.082c-1.169,1.353-3.212,1.507-4.575,0.347c-0.727-0.625-1.518-1.311-2.321-1.997
		l-0.017-0.021l-5.929-5.102l-0.085-0.073l-0.099-0.089l-0.069-0.059c-0.479-0.406-1.194-0.345-1.603,0.135
		c-0.397,0.474-0.346,1.179,0.12,1.589l0.097,0.083c0.539,0.466,3.356,2.886,6.094,5.244c1.34,1.162,1.484,3.185,0.329,4.52
		c-0.002,0.001-0.002,0.002-0.004,0.003c-1.171,1.347-3.209,1.492-4.559,0.335l-1.916-1.65l-4.263-3.671
		c-0.473-0.411-1.193-0.365-1.604,0.106c-0.416,0.472-0.365,1.188,0.106,1.604c0.006,0.004,0.01,0.008,0.016,0.012l4.261,3.668
		c1.341,1.156,1.497,3.18,0.342,4.521c-0.005,0.004-0.009,0.008-0.013,0.012c-1.166,1.348-3.202,1.492-4.558,0.335l-4.261-3.673
		c-0.476-0.407-1.191-0.354-1.604,0.122c-0.406,0.476-0.354,1.19,0.122,1.603l0,0l1.38,1.188l0.965,0.829
		c1.341,1.15,1.498,3.179,0.342,4.519c-0.004,0.005-0.008,0.009-0.012,0.014c-1.167,1.343-3.202,1.492-4.557,0.33
		c-0.008-0.01-0.018-0.016-0.032-0.024l-2.865-2.281c0.566-1.952-0.158-4.045-1.81-5.228l-0.499-0.364
		c-0.816-0.583-1.797-0.9-2.804-0.898c0.574-1.956-0.148-4.058-1.804-5.245l-0.499-0.359c-0.816-0.589-1.797-0.905-2.802-0.903
		c0.572-1.956-0.15-4.059-1.806-5.245l-0.5-0.359c-0.772-0.557-1.694-0.872-2.647-0.902c0.813-2.045,0.13-4.377-1.66-5.664
		l-0.499-0.359c-2.157-1.542-5.151-1.054-6.708,1.092l-0.92,1.271l-3.107-2.583l11.953-22.683c2.492-0.692,4.383-0.525,5.554-0.254
		c-0.337,0.498-0.626,1.029-0.862,1.583l-1.837,4.464c-0.467,1.136-0.898,2.301-1.279,3.462l-1.836,5.582
		c-0.181,0.554,0.085,1.158,0.618,1.393l0.394,0.175c2.837,1.294,6.14,1.044,8.747-0.664c2.241-1.477,3.693-3.886,3.955-6.554
		c0.007-0.1,0.018-0.199,0.024-0.301c0.079-0.392,0.724-3.198,2.688-3.336l2.652,0.744c1.025,0.291,1.965,0.835,2.729,1.584
		l16.407,16.171c0.021,0.02,0.041,0.037,0.062,0.051l8.619,7.42C129.229,124.883,129.614,125.646,129.67,126.462L129.67,126.462z
		 M126.452,119.502l-4.96-4.266l-16.379-16.145c-1.036-1.019-2.311-1.759-3.708-2.155l-2.821-0.792
		c-0.1-0.026-0.204-0.042-0.308-0.042h-0.005c-1.757,0.008-3.203,0.964-4.177,2.765c-0.419,0.79-0.718,1.638-0.889,2.512
		c-0.005,0.04-0.01,0.075-0.013,0.115c-0.007,0.103-0.016,0.206-0.026,0.306c-0.194,1.986-1.279,3.779-2.948,4.874
		c-1.791,1.156-4.012,1.413-6.016,0.702l1.504-4.579c0.364-1.113,0.774-2.227,1.225-3.309l1.832-4.455
		c0.813-1.92,2.427-3.384,4.415-4.009l6.015-1.896c1.324-0.418,2.743-0.441,4.082-0.064l6.234,1.746
		c2.959,0.829,5.039,0.903,7.957,0.279c0.07-0.016,0.138-0.037,0.208-0.064l0.873-0.372l11.896,25.14
		C129.483,117.377,128.101,118.661,126.452,119.502L126.452,119.502z M141.146,114.57c-0.076,0.196-0.224,0.352-0.417,0.434
		l-6.074,2.623c-0.379,0.168-0.833,0.002-1.011-0.378l-0.786-1.669c-0.038-0.188-0.122-0.365-0.246-0.512l-13.847-29.271
		c-0.181-0.383-0.019-0.841,0.368-1.021c0.016-0.008,0.028-0.014,0.046-0.02l6.242-2.452c0.381-0.148,0.811,0.021,0.987,0.391
		l14.715,31.278C141.211,114.159,141.221,114.376,141.146,114.57L141.146,114.57z"/>
	<path fill="#00AEEF" d="M100.002,52.5c-8.261,0.011-14.952,6.715-14.942,14.978c0.011,8.261,6.715,14.951,14.977,14.941
		c8.257-0.01,14.944-6.703,14.944-14.958C114.967,59.197,108.267,52.505,100.002,52.5z M100.002,80.148
		c-7.007-0.011-12.681-5.699-12.67-12.706c0.01-7.007,5.699-12.681,12.706-12.67c7.002,0.011,12.671,5.687,12.671,12.688
		C112.694,74.467,107.011,80.144,100.002,80.148z"/>
	<polygon fill="#00AEEF" points="104.459,61.19 104.459,59.253 95.964,59.253 95.964,70.854 93.63,70.854 93.63,72.718 
		95.964,72.718 95.964,75.666 98.133,75.666 98.133,72.718 101.264,72.718 101.264,70.854 98.133,70.854 98.133,68.207 
		103.543,68.207 103.543,66.271 98.133,66.271 98.133,61.19 	"/>
</g>
</svg>
