<?xml version="1.0" encoding="utf-8"?>
<!-- Generator: Adobe Illustrator 15.0.0, SVG Export Plug-In . SVG Version: 6.00 Build 0)  -->
<!DOCTYPE svg PUBLIC "-//W3C//DTD SVG 1.1//EN" "http://www.w3.org/Graphics/SVG/1.1/DTD/svg11.dtd" [
	<!ENTITY ns_extend "http://ns.adobe.com/Extensibility/1.0/">
	<!ENTITY ns_ai "http://ns.adobe.com/AdobeIllustrator/10.0/">
	<!ENTITY ns_graphs "http://ns.adobe.com/Graphs/1.0/">
	<!ENTITY ns_vars "http://ns.adobe.com/Variables/1.0/">
	<!ENTITY ns_imrep "http://ns.adobe.com/ImageReplacement/1.0/">
	<!ENTITY ns_sfw "http://ns.adobe.com/SaveForWeb/1.0/">
	<!ENTITY ns_custom "http://ns.adobe.com/GenericCustomNamespace/1.0/">
	<!ENTITY ns_adobe_xpath "http://ns.adobe.com/XPath/1.0/">
]>
<svg version="1.1" id="Layer_1" xmlns:x="&ns_extend;" xmlns:i="&ns_ai;" xmlns:graph="&ns_graphs;"
	 xmlns="http://www.w3.org/2000/svg" xmlns:xlink="http://www.w3.org/1999/xlink" x="0px" y="0px" width="100px" height="100px"
	 viewBox="50 50 100 100" enable-background="new 50 50 100 100" xml:space="preserve">
<metadata>
	<sfw  xmlns="&ns_sfw;">
		<slices></slices>
		<sliceSourceBounds  bottomLeftOrigin="true" width="75.969" height="95" y="53" x="61.516"></sliceSourceBounds>
	</sfw>
</metadata>
<g>
	<path fill="#00AEEF" d="M118.41,74.629c-10.34-10.171-26.964-10.036-37.134,0.302c-10.17,10.34-10.035,26.964,0.303,37.133
		c0.222,0.221,0.45,0.433,0.679,0.645c3.406,3.146,5.339,7.573,5.337,12.21v12.538c-0.021,2.731,2.176,4.964,4.906,4.986
		c0.019,0,0.042,0,0.06,0h6.274v3.896c0,0.643,0.521,1.161,1.163,1.161s1.161-0.519,1.161-1.161l0,0v-3.896h6.276
		c2.729,0.008,4.951-2.195,4.964-4.921c0-0.022,0-0.045,0-0.065v-12.553c0-4.609,2.021-9.098,5.476-12.325
		c10.623-9.861,11.233-26.471,1.371-37.09C118.972,75.197,118.693,74.91,118.41,74.629L118.41,74.629z M107.437,140.117H92.562
		c-1.444,0.01-2.627-1.148-2.64-2.592c-0.001-0.021-0.001-0.047,0-0.068v-0.442h13.265c0.642,0,1.161-0.52,1.161-1.161
		c0-0.646-0.52-1.164-1.161-1.164H89.922v-3.294h3.218c0.642,0,1.163-0.523,1.163-1.165c0-0.644-0.521-1.161-1.163-1.161h-3.218
		v-2.908h20.154v2.908H97.139c-0.642,0-1.163,0.518-1.163,1.161c0,0.642,0.521,1.165,1.163,1.165h12.937v3.294h-2.891
		c-0.646,0-1.165,0.518-1.165,1.164c0,0.642,0.52,1.161,1.165,1.161h2.891v0.442c0.021,1.447-1.125,2.636-2.574,2.66
		C107.479,140.117,107.462,140.117,107.437,140.117z M116.323,110.918c-3.617,3.367-5.813,7.984-6.149,12.918H89.825
		c-0.25-4.893-2.414-9.491-6.022-12.799c-4.934-4.551-7.746-10.954-7.754-17.664c-0.004-13.232,10.718-23.962,23.95-23.966
		c0.073,0,0.151-0.003,0.224-0.002c13.242,0.137,23.863,10.982,23.729,24.223C123.885,100.194,121.122,106.444,116.323,110.918z"/>
	<path fill="#00AEEF" d="M99.806,53.663v7.725c0,0.644,0.52,1.163,1.166,1.163c0.642,0,1.16-0.519,1.16-1.163l0,0v-7.725
		c0-0.643-0.519-1.163-1.16-1.163C100.326,52.5,99.806,53.019,99.806,53.663z"/>
	<path fill="#00AEEF" d="M136.82,89.34h-7.729c-0.642,0-1.161,0.521-1.161,1.163c0,0.642,0.52,1.163,1.161,1.163h7.729
		c0.642,0,1.164-0.521,1.164-1.163C137.984,89.862,137.462,89.34,136.82,89.34z"/>
	<path fill="#00AEEF" d="M70.905,89.34h-7.726c-0.643,0-1.163,0.521-1.163,1.163c0,0.642,0.52,1.163,1.163,1.163h7.726
		c0.642,0,1.163-0.521,1.163-1.163C72.068,89.862,71.546,89.34,70.905,89.34z"/>
	<path fill="#00AEEF" d="M126.345,62.493l-6.031,6.03c-0.455,0.453-0.455,1.189,0,1.644c0.453,0.454,1.191,0.454,1.644,0
		l6.029-6.031c0.455-0.455,0.455-1.189,0-1.643C127.535,62.038,126.799,62.038,126.345,62.493z"/>
	<path fill="#00AEEF" d="M72.007,62.494c-0.454,0.454-0.454,1.188,0,1.642l6.031,6.031c0.457,0.454,1.191,0.454,1.645,0
		c0.453-0.455,0.453-1.191,0-1.644l-6.031-6.03C73.199,62.038,72.464,62.038,72.007,62.494z"/>
	<path fill="#00AEEF" d="M101.628,76.651c-9.127-0.918-17.276,5.742-18.193,14.872c-0.917,9.129,5.739,17.277,14.872,18.193
		c0.02,0.004,0.043,0.004,0.062,0.008c0.556,0.058,1.108,0.081,1.661,0.081c9.177-0.018,16.605-7.468,16.586-16.646
		C116.602,84.623,110.124,77.488,101.628,76.651z M114.223,94.592c-0.777,7.854-7.774,13.59-15.626,12.812
		c-7.853-0.772-13.593-7.77-12.814-15.625c0.721-7.299,6.856-12.868,14.192-12.883c0.471,0,0.95,0.021,1.428,0.069
		C109.255,79.741,114.994,86.735,114.223,94.592L114.223,94.592z"/>
	<polygon fill="#00AEEF" points="104.786,86.918 104.786,84.881 95.845,84.881 95.845,97.093 93.389,97.093 93.389,99.054 
		95.845,99.054 95.845,102.155 98.129,102.155 98.129,99.054 101.425,99.054 101.425,97.093 98.129,97.093 98.129,94.306 
		103.821,94.306 103.821,92.268 98.129,92.268 98.129,86.918 	"/>
</g>
</svg>
